<?xml version="1.0" encoding="UTF-8" standalone="no"?>
<!DOCTYPE svg  PUBLIC '-//W3C//DTD SVG 1.1//EN'  'http://www.w3.org/Graphics/SVG/1.1/DTD/svg11.dtd'>
<svg xmlns="http://www.w3.org/2000/svg">
<defs>
<font id="Foco-Bold" horiz-adv-x="549">
<font-face underline-position="-113" font-weight="700" descent="-227" panose-1="2 11 8 4 5 2 2 2 2 3" units-per-em="1000" unicode-range="U+000D-20AC" bbox="-64 -227.111 891 868" x-height="476" underline-thickness="20" font-family="Foco" ascent="773" cap-height="674"/>
<missing-glyph horiz-adv-x="1000"/>
<glyph glyph-name=".notdef" horiz-adv-x="1000"/>
<glyph glyph-name=".null" horiz-adv-x="0"/>
<glyph glyph-name=".null" horiz-adv-x="0"/>
<glyph glyph-name="nonmarkingreturn" horiz-adv-x="1000" unicode=""/>
<glyph glyph-name="space" horiz-adv-x="230" unicode=" "/>
<glyph glyph-name="exclam" horiz-adv-x="281" unicode="!" d="M205 189l-15 -2q-7 -1 -15 -1t-16 -1q-16 0 -32 4t-29 14q-13 11 -21 27t-8 41v397l15 2q7 2 15 2h16q16 0 32 -4t29 -12t21 -24t8 -41v-402zM215 59q-1 -32 -21 -53t-54 -21t-54 21t-20 53q0 33 20 53t54 20q33 0 54 -20t21 -53z"/>
<glyph glyph-name="numbersign" horiz-adv-x="666" unicode="#" d="M400 384h-119l-18 -129h118zM465 181l-21 -155h-95l22 155h-118l-21 -155h-95l22 155h-128l10 74h128l18 129h-128l11 74h128l21 148h94l-21 -148h118l21 148h94l-22 -148h134l-10 -74h-133l-19 -129h133l-10 -74h-133z"/>
<glyph glyph-name="dollar" horiz-adv-x="561" unicode="$" d="M98 154q26 -20 64 -42t92 -22q20 0 39 4t33 15q14 10 24 27q9 17 9 41q-1 23 -9 41t-23 30t-35 22q-20 9 -46 16q-36 10 -69 24t-59 38q-26 22 -40 54q-15 32 -15 77q1 71 41 117t102 63v100h61v-89h11t12 1h10t10 -1v89h61v-98q31 -7 53 -17t31 -17q26 -17 26 -44 q0 -12 -10 -33t-28 -41q-23 19 -61 37t-80 18q-17 0 -35 -3t-33 -11q-14 -8 -24 -22t-10 -37q0 -21 7 -35t21 -25t38 -20q22 -9 53 -19q35 -12 67 -28t56 -39t38 -54t14 -73q0 -72 -33 -121t-90 -73v-108h-61v92q-12 -2 -22 -3t-21 -2v-87h-61v90q-48 4 -78 16t-45 22 q-11 8 -19 19t-7 25q0 16 13 41t28 45z"/>
<glyph glyph-name="percent" horiz-adv-x="832" unicode="%" d="M269 0h-111l378 627q15 25 30 41t47 15q28 0 43 -4l17 -4zM691 161q0 45 -13 71t-48 27q-33 0 -46 -27t-13 -72q0 -46 13 -74t46 -27q36 0 48 27t13 75zM791 160q0 -85 -44 -131t-116 -46q-75 0 -118 46t-43 131q0 42 12 75t34 55t50 34q29 12 64 11q75 0 118 -45 t43 -130zM262 510q0 46 -13 72t-48 26t-47 -27t-12 -72t13 -73t46 -28q35 0 48 27t13 75zM362 509q0 -85 -44 -131t-116 -46q-76 0 -118 46t-43 131q0 85 45 130t115 45q75 0 118 -45t43 -130z"/>
<glyph glyph-name="ampersand" horiz-adv-x="735" unicode="&amp;" d="M286 91q42 0 71 16t57 46l-142 178q-18 -8 -36 -20t-32 -29q-14 -16 -21 -38q-8 -22 -8 -49q1 -48 29 -76t82 -28zM691 13q-35 -20 -72 -20q-49 0 -79 21t-54 56q-35 -38 -84 -62t-125 -23q-62 1 -106 17q-43 16 -71 44t-41 66t-13 78q0 46 16 83t39 65t53 46 q30 20 59 32q-19 26 -29 50t-10 62q0 36 15 64t41 48t61 30t76 11q45 -1 75 -9t51 -21q37 -22 37 -47q0 -18 -11 -36t-26 -38q-31 26 -55 36t-48 11q-34 -1 -52 -17t-18 -46q0 -20 8 -40t23 -36l141 -181q18 37 24 83t6 90h192v-85h-88q-6 -103 -57 -178z"/>
<glyph glyph-name="parenleft" horiz-adv-x="321" unicode="(" d="M51 303q0 125 33 219t84 145q47 47 100 47q15 0 25 -2t17 -7q-12 -17 -32 -49t-38 -80t-32 -116t-13 -158q1 -102 19 -178t41 -130q26 -64 60 -106q-11 -6 -23 -8t-23 -3q-25 0 -49 10t-50 35q-22 22 -44 55t-38 79t-27 108q-10 61 -10 139z"/>
<glyph glyph-name="parenright" horiz-adv-x="321" unicode=")" d="M270 303q0 -78 -10 -139q-10 -62 -26 -108t-38 -79t-45 -55q-25 -25 -49 -35t-50 -10q-12 1 -24 3t-22 8q34 42 60 106q24 54 42 130t18 178q0 90 -14 158t-32 116t-38 80t-31 49q7 5 17 7t25 2q53 0 100 -47q51 -51 84 -145t33 -219z"/>
<glyph glyph-name="comma" horiz-adv-x="241" unicode="," d="M120 131q38 0 57 -27t19 -65q0 -27 -9 -57t-25 -54t-37 -42q-21 -16 -45 -16q-16 0 -30 8t-20 26q20 9 40 30t23 51q-15 11 -29 29t-14 50q0 24 18 46t52 21z"/>
<glyph glyph-name="period" horiz-adv-x="248" unicode="." d="M198 60q0 -32 -20 -54t-54 -21q-34 -1 -54 21t-20 54t21 52t53 21q32 -1 53 -21t21 -52z"/>
<glyph glyph-name="zero" d="M386 327q0 65 -8 111t-21 74q-15 28 -35 40t-46 12t-47 -12t-35 -40t-22 -74t-8 -111t8 -110t22 -73t35 -40t47 -12t46 12t35 40q13 28 21 72q8 45 8 111zM521 327q0 -164 -60 -253t-186 -89q-127 -1 -187 85t-61 257q-1 79 15 143t48 108q32 45 78 69q48 24 111 24 q65 1 111 -23t75 -68t43 -108t13 -145z" unicode="0"/>
<glyph glyph-name="one" d="M260 0v505l-131 -66q-13 19 -27 41t-14 41q0 12 8 24t24 21l142 74q20 10 38 18t39 7q20 1 34 -5t22 -11v-649h-135z" unicode="1"/>
<glyph glyph-name="two" d="M54 0v96q19 15 44 37q24 22 52 48q28 27 56 55t55 57q39 43 63 85t23 87q-1 27 -9 45t-22 28t-30 16q-17 4 -35 4q-51 0 -89 -23t-70 -52q-20 23 -34 44t-13 35q0 12 7 22t17 18q9 8 27 20t42 23t57 19q32 8 72 7q45 0 85 -11t69 -34q29 -22 46 -60t17 -90q0 -36 -12 -72 t-32 -70t-44 -65q-25 -31 -52 -59q-28 -30 -55 -56t-50 -46h191q24 0 40 -6t24 -18q10 -10 14 -22t4 -26v-19t-2 -17h-456z" unicode="2"/>
<glyph glyph-name="three" d="M482 192q0 -46 -14 -84t-45 -66q-29 -28 -75 -44t-107 -15q-39 0 -69 5q-30 6 -52 12t-38 14t-26 14q-30 17 -30 45t41 89q11 -11 27 -24q16 -14 38 -24q21 -10 46 -17t54 -7q22 0 42 6t36 18q16 13 24 33q10 20 10 49q0 33 -13 53t-31 30t-38 13t-32 3h-51v101h51 q13 0 30 4t32 14q16 10 26 26q10 18 10 45q0 41 -24 59t-71 18q-25 0 -47 -6t-41 -16t-35 -20l-32 -24q-20 18 -33 40t-13 36t8 24t17 17q9 8 27 18t42 19t57 15q32 6 71 6q56 0 96 -13q40 -14 66 -36t38 -52t13 -67q0 -35 -11 -61q-10 -26 -26 -44t-34 -30t-30 -18 q16 -6 36 -16t38 -29q18 -17 30 -45t12 -68z" unicode="3"/>
<glyph glyph-name="four" d="M311 261v222l-165 -222h165zM38 159v91l254 352q14 21 38 41t62 20q13 -1 30 -5t25 -10v-390h31q28 0 40 -13t12 -35q0 -10 -1 -18l-2 -16l-2 -17h-78v-159h-136v159h-273z" unicode="4"/>
<glyph glyph-name="five" d="M211 551l-14 -128q14 3 35 7t42 3q50 -1 90 -13t70 -38t45 -68q16 -40 16 -96q0 -48 -15 -90q-16 -42 -46 -74t-76 -50t-110 -19q-42 0 -74 5q-32 4 -56 12t-38 16t-21 15q-10 7 -18 17t-8 24q-1 14 11 38t32 53q11 -11 28 -23q16 -12 38 -22t48 -18q26 -7 54 -7 q22 1 42 7t36 20t26 36t9 53q-1 38 -13 61q-12 24 -31 36t-41 16t-40 4q-32 0 -60 -6t-52 -17l-47 20l35 338h359q3 -11 3 -19v-18q0 -35 -18 -55t-67 -20h-174z" unicode="5"/>
<glyph glyph-name="six" d="M369 222q0 60 -20 93t-71 33q-16 0 -30 -4t-27 -8q-13 -6 -23 -12t-16 -12q-2 -12 -3 -26t-1 -31q0 -27 4 -56t14 -53q11 -24 31 -40t53 -15q40 0 64 34t25 97zM509 231q0 -61 -18 -107t-49 -78t-73 -47q-42 -16 -91 -16q-61 1 -106 21q-44 20 -74 58t-44 92t-15 121 q0 103 29 177q30 74 76 123t105 73t119 23q38 1 58 -11t20 -49q0 -11 -1 -24t-3 -24q-14 2 -24 3t-28 1q-44 0 -78 -16t-59 -40q-25 -25 -41 -53t-23 -53q17 15 52 29t81 14q48 0 84 -18t58 -47t34 -69q11 -40 11 -83z" unicode="6"/>
<glyph glyph-name="seven" d="M232 0h-144l261 545h-302l-3 17q-2 8 -2 17v17q0 30 19 48t61 19h333q29 1 40 -9t11 -36v-40z" unicode="7"/>
<glyph glyph-name="eight" d="M354 492q0 42 -24 64t-62 21q-37 0 -61 -22t-24 -64q-1 -43 23 -69t62 -26t62 26t24 70zM371 189q0 49 -26 76t-77 27t-77 -28t-26 -75q-1 -51 27 -77t76 -26t76 26t27 77zM508 188q0 -54 -18 -93t-51 -64q-32 -25 -76 -37t-95 -11q-113 0 -176 48t-63 150q0 63 33 105 t82 58q-46 20 -70 61t-24 86q0 43 18 77t47 57t69 35t84 11t84 -11t70 -32t46 -54q18 -34 18 -79q0 -48 -24 -88t-68 -63q58 -17 86 -58t28 -98z" unicode="8"/>
<glyph glyph-name="nine" d="M175 432q0 -60 22 -94t73 -33q34 -1 58 11t34 23q2 12 3 28t1 33q0 27 -4 56t-15 53q-11 23 -31 39t-52 16q-40 0 -64 -34t-25 -98zM36 426q0 60 18 106t48 77t72 47t91 15q60 -1 105 -21t75 -58t45 -91q15 -54 15 -120q1 -102 -27 -177t-74 -124t-106 -73t-122 -24 q-16 1 -30 3t-24 8t-18 18q-6 12 -6 29q0 11 2 25t3 26q22 -3 43 -3q51 0 88 15q38 14 62 38t38 52t18 55q-18 -17 -50 -29t-74 -12q-50 0 -86 18t-60 49q-24 29 -34 69q-12 40 -12 82z" unicode="9"/>
<glyph glyph-name="question" horiz-adv-x="461" unicode="?" d="M279 59q0 -32 -20 -53t-54 -21q-35 0 -55 21t-20 53q0 33 20 53t55 20q32 0 53 -20t21 -53zM215 681q43 -1 81 -11t68 -32q28 -22 44 -53q16 -32 17 -75q0 -32 -8 -56t-21 -45q-14 -21 -30 -37t-33 -31q-31 -27 -55 -53t-24 -64q0 -19 4 -35q-6 -3 -15 -3h-17 q-36 0 -60 19t-24 58q0 35 18 61t43 49q15 13 29 27t26 28t19 31q7 16 7 35q0 46 -27 64t-65 18q-40 0 -73 -18t-56 -35q-15 15 -29 32t-13 36q0 15 11 27t28 23q27 17 67 29t88 11z"/>
<glyph glyph-name="at" horiz-adv-x="797" unicode="@" d="M508 63q-21 -6 -42 -6q-38 0 -58 18t-20 60v75q-20 0 -53 -2t-65 -15q-32 -12 -54 -36q-23 -24 -23 -67q1 -17 7 -38t25 -40q19 -20 53 -32t91 -12q63 0 113 18t84 54t52 92t19 134q0 70 -22 122t-62 88q-40 34 -95 52t-122 17q-48 0 -90 -9q-42 -10 -74 -22 q-34 -12 -58 -27t-38 -27q-16 11 -28 30t-12 31q0 9 6 18t19 20q18 13 45 27t63 24q35 10 79 18t95 8q98 0 172 -28t123 -78q50 -50 74 -117t24 -145q0 -86 -24 -158t-73 -124t-119 -79q-70 -28 -161 -28q-72 -1 -125 15q-54 16 -88 44t-50 66t-17 85q1 41 15 71t38 52 t53 34q29 14 61 22t62 11t55 3h11t11 -1q1 39 -19 65t-70 26q-44 0 -78 -14t-59 -30q-14 15 -21 31t-7 27q-1 10 7 20t30 21q26 13 62 21t84 9q87 0 136 -41t49 -129v-105q0 -28 1 -56t8 -63z"/>
<glyph glyph-name="A" horiz-adv-x="633" unicode="A" d="M314 549l-91 -285h179zM485 0l-57 164h-231l-55 -164h-136l232 660q12 5 33.5 9.5t46.5 4.5q11 0 24.5 -2t26.5 -8.5t24.5 -18.5t18.5 -33l215 -612h-142z"/>
<glyph glyph-name="B" horiz-adv-x="584" unicode="B" d="M377 497q-1 47 -33 65t-87 18q-19 0 -31 -1t-20 -2v-186h66q49 0 77 29t28 77zM262 99q34 0 61 4q27 3 46 15t29 32t10 51q0 55 -36 77t-93 22h-73v-201h56zM548 196q0 -58 -20 -96t-56 -60t-87 -31t-114 -9h-202v665q51 5 97 8t87 3q75 0 126 -12t81 -33q30 -22 44 -54 q13 -32 13 -72q1 -33 -9 -58t-25 -44t-33 -31t-34 -18q18 -4 41 -14t43 -28t34 -46t14 -70z"/>
<glyph glyph-name="C" horiz-adv-x="607" unicode="C" d="M547 38q-5 -6 -19 -15t-37 -18t-55 -15t-75 -7q-81 0 -140 26q-59 27 -97 73t-57 110q-18 64 -18 139q-1 77 19 141t59 111t97 73t138 27q38 0 70 -7q32 -6 56 -16t38 -20q16 -10 24 -18q10 -8 16 -19t6 -24q0 -20 -15 -40t-33 -37q-12 12 -27 24t-33 22t-42 16t-53 7 q-51 -1 -85 -21t-56 -53q-21 -33 -30 -75t-9 -87q0 -47 9 -90t31 -76q21 -33 57 -53t89 -20q27 0 51 7t42 17t32 21t22 19q6 -7 14 -17t15 -21t12 -22t5 -20q0 -13 -5 -22t-16 -20z"/>
<glyph glyph-name="D" horiz-adv-x="643" unicode="D" d="M461 344q0 47 -9 88q-9 42 -31 72q-21 30 -59 48t-95 17q-29 0 -60 -3v-461h55q60 -1 98 17t60 50t32 75q9 44 9 97zM601 346q0 -71 -19 -134t-58 -110q-40 -46 -100 -74t-142 -28h-213v664q63 8 109 10t79 2q100 0 166 -26q65 -26 105 -72q40 -45 56 -105t17 -127z"/>
<glyph glyph-name="E" horiz-adv-x="525" unicode="E" d="M421 106q47 0 65 -22t18 -49v-19t-2 -16h-433v670h417q2 -10 2 -18t1 -19q0 -35 -18 -53t-67 -17h-197v-165h212v-107h-212v-185h214z"/>
<glyph glyph-name="F" horiz-adv-x="508" unicode="F" d="M206 407h215v-107h-215v-300h-137v670h420q3 -10 3 -18v-19q0 -30 -18 -50t-63 -20h-205v-156z"/>
<glyph glyph-name="G" horiz-adv-x="667" unicode="G" d="M361 262v102h243v-300q-9 -11 -28 -25q-19 -15 -49 -27t-71 -20t-93 -9q-81 1 -141 27t-98 72t-56 112q-18 64 -19 140q-1 74 19 138t60 111t101 73t144 27q41 1 79 -9t68 -25t47 -33q18 -18 18 -38q-1 -17 -15 -38t-34 -38q-12 11 -28 23t-34 22q-20 11 -44 17t-55 6 q-54 0 -90 -20t-57 -52t-30 -75q-9 -42 -9 -87q-1 -48 9 -92t32 -78t58 -54t90 -20q26 0 44 4t30 9q13 6 23 14v143h-114z"/>
<glyph glyph-name="H" horiz-adv-x="654" unicode="H" d="M201 398h252v271l17 2l16 2t17 1q13 0 29 -3t28 -11q14 -8 22 -24q8 -15 8 -40v-596h-137v290h-252v-290h-137v669l18 2l16 2t14 1q14 0 30 -3t29 -11t21 -24q8 -15 9 -40v-198z"/>
<glyph glyph-name="I" horiz-adv-x="265" unicode="I" d="M201 0h-137v669l17 2q7 1 15 2t15 1q13 0 29 -3t30 -11t22 -24q9 -16 9 -40v-596z"/>
<glyph glyph-name="J" horiz-adv-x="266" unicode="J" d="M202 77q0 -38 -6 -86q-6 -49 -24 -91q-20 -42 -59 -72t-106 -29q-35 0 -50 13t-19 42q-2 10 -2 22v23q29 1 53 7q25 6 41 20t25 36t9 58v649l18 2l16 2t14 1q14 0 30 -3t30 -11t22 -24t8 -39v-520z"/>
<glyph glyph-name="K" horiz-adv-x="588" unicode="K" d="M255 231q-19 23 -33 51t-16 58v-340h-137v669l17 2l16 2t14 1q13 0 29 -3q15 -3 29 -11t23 -24t9 -40v-244q2 24 14 46t27 42l137 180q23 30 46 42t49 12t47 -8t34 -22l-221 -295l249 -337q-39 -23 -79 -23q-67 0 -107 52z"/>
<glyph glyph-name="L" horiz-adv-x="504" unicode="L" d="M69 669l18 2q7 1 15 2t15 1q13 0 29 -3t30 -11t22 -24q9 -16 9 -40v-485h195q24 0 40 -6t25 -16t13 -23t3 -26q-1 -10 -1 -25t-1 -15h-412v669z"/>
<glyph glyph-name="M" horiz-adv-x="806" unicode="M" d="M170 674q33 0 51 -16t29 -40l152 -358l153 354q14 32 35 46t48 14q21 0 40 -2t29 -7l48 -665h-130l-31 444l-136 -304h-115l-132 291l-29 -431h-131l49 665q10 3 30 6t40 3z"/>
<glyph glyph-name="N" horiz-adv-x="660" unicode="N" d="M465 208v461l16 2l14 2t14 1q13 0 29 -3t28 -11t22 -24q8 -16 8 -40v-596h-116l-285 440v-440h-131v668q10 2 27 4t34 2q32 0 50 -11t32 -34z"/>
<glyph glyph-name="O" horiz-adv-x="704" unicode="O" d="M514 336q0 48 -8 91t-27 75t-49 52q-30 19 -74 19q-46 0 -78 -19q-32 -20 -50 -52q-20 -32 -28 -75t-9 -91q1 -48 9 -92t27 -78t50 -54t76 -20t76 20t49 54t28 78q8 44 8 92zM655 337q0 -73 -17 -137t-54 -112t-95 -77q-58 -28 -140 -28q-81 1 -138 29t-93 76t-52 113 q-16 64 -17 135q0 70 18 133t56 111t96 75q58 28 138 28q79 0 135 -27q56 -28 93 -74q36 -46 53 -109t17 -136z"/>
<glyph glyph-name="P" horiz-adv-x="553" unicode="P" d="M388 466q0 61 -36 87t-92 26q-32 0 -54 -3v-240h33q73 0 111 28t38 102zM528 473q0 -65 -22 -110t-60 -73t-86 -39q-50 -12 -105 -12h-48v-239h-138v666q45 6 92 8t85 2q146 0 214 -52t68 -151z"/>
<glyph glyph-name="Q" horiz-adv-x="705" unicode="Q" d="M515 336q0 48 -8 91t-27 75t-49 52q-30 19 -74 19q-47 0 -79 -19q-32 -20 -50 -52q-20 -32 -28 -75t-9 -91q1 -48 9 -92t27 -78t51 -54t76 -20q45 0 76 20q32 20 50 54t26 78t9 92zM656 337q0 -73 -18 -137t-54 -112q-37 -48 -95 -77q-58 -28 -139 -28q-81 1 -138 29 q-58 28 -94 76t-52 113q-16 64 -17 135q1 70 19 133t56 111t96 75q58 28 138 28t136 -27q56 -28 92 -74t53 -109t17 -136zM345 -73q9 11 23 21t33 10q25 0 45 -12t44 -27t54 -28q32 -13 82 -15q-1 -36 -19 -59t-56 -23q-31 0 -63 13t-60 33t-50 42q-22 24 -33 45z"/>
<glyph glyph-name="R" horiz-adv-x="575" unicode="R" d="M382 465q0 63 -33 89t-90 25q-18 0 -31 -1t-22 -2v-231h47q61 -1 95 29t34 91zM526 478q0 -42 -10 -74t-29 -56q-18 -24 -41 -40t-47 -25l165 -276q-19 -9 -40 -13t-40 -4q-37 0 -62 16t-46 52l-114 194h-55v-252h-138v666q45 6 92 8t85 2q144 0 212 -49t68 -149z"/>
<glyph glyph-name="S" horiz-adv-x="518" unicode="S" d="M67 154q29 -22 69 -44t96 -21q21 0 41 5q19 6 35 16t26 27t10 42q0 26 -11 44q-11 19 -29 31t-42 21t-49 18q-33 11 -65 24t-58 34t-42 53t-17 83q0 48 19 85q19 38 52 62t76 36t91 13q33 0 61 -5t52 -12q22 -6 38 -14t23 -14q28 -16 28 -45q-1 -13 -11 -33t-29 -40 q-25 20 -65 38t-84 18q-18 0 -37 -4t-35 -12t-25 -23q-10 -15 -10 -37q0 -20 10 -36t27 -28q18 -12 40 -20q22 -9 46 -18q32 -12 65 -26t60 -36t44 -54t17 -81q0 -53 -18 -93t-52 -69q-34 -28 -80 -42t-101 -14q-73 1 -117 15t-64 26q-12 8 -20 19t-8 25q0 17 14 41t29 45z "/>
<glyph glyph-name="T" horiz-adv-x="570" unicode="T" d="M218 558h-209v1q-3 12 -3 20v19q0 28 20 50t65 22h470q3 -21 3 -43q0 -25 -18 -47t-64 -22h-126v-558h-138v558z"/>
<glyph glyph-name="U" horiz-adv-x="647" unicode="U" d="M201 261q1 -36 5 -65q4 -30 18 -50t37 -32q24 -12 63 -11q68 -1 95 39t27 111v416l18 2l16 2t14 1q14 0 30 -3t28 -11q14 -8 22 -24q8 -15 9 -40v-326q0 -20 -1 -40t-3 -41q-5 -41 -21 -79t-48 -66t-78 -43q-47 -16 -111 -16q-65 0 -110 14q-45 15 -75 41t-46 64t-22 89 q-2 18 -3 37t-1 40v399l17 2q7 1 15 2t15 1q15 0 31 -3t28 -11q14 -8 22 -24q8 -15 9 -40v-335z"/>
<glyph glyph-name="V" horiz-adv-x="617" unicode="V" d="M383 -5h-152l-225 669q10 4 30 7t44 3q38 0 60 -19t34 -55l137 -455l140 458q11 35 33 53t59 18q29 0 68 -10z"/>
<glyph glyph-name="W" horiz-adv-x="897" unicode="W" d="M676 -5h-113l-113 350l-109 -350h-112l-223 666q12 5 34 9t39 4q37 0 57 -16t31 -49l130 -428l98 314l-46 170q19 5 35 7t31 2q37 0 57 -17t29 -49l118 -416l113 408q9 32 30 53t58 21q23 0 40 -4t31 -7z"/>
<glyph glyph-name="X" horiz-adv-x="582" unicode="X" d="M289 221l-128 -221h-150l198 334l-176 318q20 10 42 16t45 6q55 0 80 -49l97 -181l99 170q18 32 38 46t55 14q21 0 37 -5t36 -15l-186 -315l195 -335q-19 -7 -41 -11t-38 -4q-40 0 -62 16t-38 45z"/>
<glyph glyph-name="Y" horiz-adv-x="578" unicode="Y" d="M357 257v-257h-137v253l-214 401q17 8 40 14t43 6q35 0 53 -14t32 -40l117 -233l117 231q12 24 32 40t56 16q23 0 40 -4t36 -11z"/>
<glyph glyph-name="Z" horiz-adv-x="556" unicode="Z" d="M21 0v92l336 471h-333v1q-2 10 -2 18v19q0 29 19 49t64 20h368q26 0 37 -10t11 -32v-50l-338 -472h268q25 0 41 -6t26 -16t13 -22q4 -12 4 -26q-1 -11 -1 -19t-1 -17h-512z"/>
<glyph glyph-name="grave" horiz-adv-x="382" unicode="`" d="M106 679q13 11 35.5 22t40.5 11q21 0 35.5 -9.5t28.5 -28.5l82 -116q-9 -8 -28 -14t-33 -6q-33 0 -56 26z"/>
<glyph glyph-name="a" horiz-adv-x="517" unicode="a" d="M325 232h-14t-14 -1q-25 -2 -49.5 -6.5t-43.5 -14t-31 -25.5t-12 -41q0 -28 16 -47.5t54 -19.5q19 0 36 5t30 13t20.5 17.5t7.5 17.5v102zM453 116q0 -78 23 -115q-18 -7 -33.5 -10t-32.5 -3q-36 0 -54.5 14t-23.5 40q-22 -23 -58 -39t-88 -16q-27 0 -54 7.5t-49 24.5 t-36 45.5t-14 69.5q0 51 24.5 83t61.5 50.5t80 25.5t79 9q12 1 23.5 1h21.5v18q0 38 -20.5 54t-66.5 16q-43 0 -76.5 -14t-65.5 -32q-14 17 -22.5 37.5t-8.5 30.5q0 13 15.5 26.5t42.5 24t62 17t74 6.5q54 0 91.5 -11t61 -34t33.5 -57.5t10 -80.5v-188z"/>
<glyph glyph-name="b" horiz-adv-x="561" unicode="b" d="M375 247q0 31 -5 57q-4 26 -16 46q-12 19 -32 30t-47 11q-43 0 -59 -16t-16 -36v-217q8 -8 28 -20t52 -11q51 1 73 41t22 115zM200 443q15 15 44 29t75 15q39 1 75 -11t62 -40q28 -28 44 -74t17 -113q0 -78 -18 -129q-19 -50 -47 -80t-64 -42t-71 -12q-31 0 -55 8t-40 16 q-16 10 -24 18t-10 11q0 -15 -8 -27t-28 -12h-88v705q0 1 15 3t31 1q16 0 32 -3t30 -12q12 -8 20 -24t8 -41v-186z"/>
<glyph glyph-name="c" horiz-adv-x="472" unicode="c" d="M303 86q22 0 40 5t32 12.5t24 16t15 14.5q6 -6 12 -15.5t11 -20t8 -20.5t3 -18q0 -10 -4 -19.5t-17 -19.5q-19 -14 -54 -26t-89 -12q-36 0 -78 10t-78 38t-60 77.5t-24 129.5q0 76 25 124t62 76t78.5 38.5t74.5 10.5q42 0 76.5 -9t57.5 -24q19 -12 26.5 -23t7.5 -26 q0 -14 -9 -34.5t-23 -37.5q-16 17 -47 34t-69 17q-66 0 -94 -40.5t-28 -103.5q0 -32 6 -60t20.5 -49t37.5 -33t57 -12z"/>
<glyph glyph-name="d" horiz-adv-x="559" unicode="d" d="M184 237q0 -35 5 -63t17 -49q12 -20 32 -31t51 -11q29 0 49 12t21 34v225q-7 8 -27 19t-46 11q-52 0 -77 -38t-25 -109zM406 0q-17 0 -27 12t-10 29q-13 -17 -47 -35t-86 -18q-38 0 -72 12t-61 40t-43 74t-16 116q0 69 16 118q16 50 44 80t64 44t74 15q45 1 74 -15 t43 -31v264q0 1 15 3t31 1q17 0 33 -3t28 -12q12 -8 21 -24q8 -16 8 -41v-629h-89z"/>
<glyph glyph-name="e" horiz-adv-x="514" unicode="e" d="M355 288q-1 48 -19 78t-66 30q-42 0 -66 -28t-24 -80h175zM310 85q25 -1 44 5t34 14t26 18t20 17q12 -15 25 -39t13 -38q0 -22 -25 -40q-21 -16 -59 -28t-91 -11q-47 0 -93 12t-80 42q-36 31 -58 81t-22 127q0 63 20 109t52 75q32 30 73 44t84 14q56 1 95 -17 q40 -18 64 -48t35 -67q11 -38 11 -80v-14v-17q0 -10 -2 -18q0 -8 -1 -13h-294q4 -55 34 -91t95 -37z"/>
<glyph glyph-name="f" horiz-adv-x="370" unicode="f" d="M382 572q-16 17 -42 28t-58 11q-38 0 -60 -20t-23 -68v-47h160v-103h-160v-373h-135v519q0 97 51 147t147 51q36 0 72 -8t61 -24t25 -42q0 -14 -12 -34t-26 -37z"/>
<glyph glyph-name="g" horiz-adv-x="553" unicode="g" d="M184 242q0 -70 21 -110t79 -41q35 -1 55 13t20 36v214q-7 8 -27 19t-46 11q-102 0 -102 -142zM489 37q1 -59 -11 -107t-40 -84q-28 -35 -76 -54q-47 -19 -118 -19q-60 0 -98 9t-62 22q-20 11 -26 23t-5 23q0 16 13 38t26 38q8 -7 20 -16q12 -10 30 -18t40 -14t50 -6 q40 0 64 10t38 30t20 48t5 64v18q-15 -18 -45 -32t-78 -14q-38 0 -72 12t-61 39t-43 73t-16 114q0 69 16 117q16 49 44 79t64 44t74 13q46 0 74 -15t44 -38q8 23 30 33t51 10q8 -1 17 -1t16 -1l15 -2v-436z"/>
<glyph glyph-name="h" horiz-adv-x="561" unicode="h" d="M361 276q1 22 -1 41t-8 33t-22 20q-14 8 -40 8q-38 0 -64 -16t-26 -38v-324h-136v705q0 1 15 3t31 1q16 0 32 -3q16 -4 29 -12t21 -24t8 -40v-199q8 9 20 19t29 18t39 14q22 5 52 5q71 0 105 -28t44 -74q5 -23 7 -50t1 -53v-282h-136v276z"/>
<glyph glyph-name="i" horiz-adv-x="264" unicode="i" d="M201 633q1 -32 -21 -52t-52 -20q-31 0 -52 20t-21 52q0 33 21 53t52 20q30 0 52 -20t21 -53zM200 -6q-4 -2 -18 -3t-30 -1q-40 0 -64 16t-24 67v400q0 1 15 3t31 1q16 0 32 -3q16 -4 29 -12t21 -24t8 -40v-404z"/>
<glyph glyph-name="j" horiz-adv-x="264" unicode="j" d="M201 633q1 -32 -21 -52t-52 -20q-31 0 -52 20t-21 52q0 33 21 53t52 20q30 0 52 -20t21 -53zM64 473q0 1 15 3t31 1q16 0 32 -3q16 -4 29 -12t21 -24t8 -40v-382v-28t-1 -29q-3 -59 -21 -95t-43 -56t-53 -28t-49 -7q-44 1 -57 25t-13 65v8q31 2 51 9t30 20q12 13 16 32 t4 45v496z"/>
<glyph glyph-name="k" horiz-adv-x="522" unicode="k" d="M222 191q-18 21 -22 50v-241h-136v705q0 1 15 3t31 1q16 0 32 -3t29 -12q13 -8 21 -24t8 -41v-358q6 27 26 50l106 121q16 20 34 31t43 11q27 0 47 -10t39 -24l-163 -188l187 -248q-14 -10 -35 -17t-44 -7q-36 0 -60 12t-47 40z"/>
<glyph glyph-name="l" horiz-adv-x="264" unicode="l" d="M200 -6q-5 -2 -19 -3t-31 -1q-16 0 -32 4t-28 12q-12 10 -19 26t-7 41v632q0 1 15 3t31 1q16 0 32 -3q16 -4 29 -12t21 -24t8 -40v-636z"/>
<glyph glyph-name="m" horiz-adv-x="832" unicode="m" d="M201 0h-137v473l12 2q6 1 14 1t19 1q31 1 55 -11t30 -41q17 23 52 43t95 19q55 0 83 -20t41 -47q21 26 58 46t94 21q71 0 105 -30t39 -72q3 -23 5 -50t2 -53v-282h-136v276q0 22 -1 40t-7 31t-20 20t-38 7q-26 0 -50 -12t-32 -26q3 -29 3 -59v-277h-136v276q0 22 -1 41 t-8 33t-21 20q-14 8 -40 8q-35 0 -57 -16t-23 -38v-324z"/>
<glyph glyph-name="n" horiz-adv-x="562" unicode="n" d="M201 0h-137v473l12 2q6 1 14 1t19 1q31 1 55 -11t30 -41q17 23 52 43t95 19q71 0 105 -28t44 -74q4 -23 6 -50t2 -53v-282h-136v276q0 22 -2 41t-8 33t-20 20q-14 8 -41 8q-37 0 -63 -16t-27 -38v-324z"/>
<glyph glyph-name="o" horiz-adv-x="559" unicode="o" d="M378 238q0 27 -4 53.5t-15 46.5t-30 32.5t-48 12.5t-48.5 -13t-31 -33.5t-16.5 -46.5t-5 -53t4.5 -54t15.5 -48.5t30.5 -34.5t48.5 -13q30 0 49.5 13t30.5 34.5t15 48.5t4 55zM515 239q0 -50 -12.5 -96t-41 -81t-73.5 -56t-109 -21t-108.5 20.5t-72.5 55t-41 80t-13 95.5 q0 51 15 96.5t44.5 80t74.5 54.5t105 20q63 0 107.5 -20t72 -54t40 -79t12.5 -95z"/>
<glyph glyph-name="p" horiz-adv-x="561" unicode="p" d="M375 244q0 30 -5 56q-4 26 -16 45t-32 29t-47 11q-43 0 -59 -16t-16 -35v-212q8 -8 28 -19t48 -11q51 0 75 40t24 112zM194 429q16 19 50 39t86 19q36 -1 70 -13t60 -40t42 -74t15 -113q0 -79 -18 -129q-19 -50 -47 -80t-64 -41q-36 -12 -69 -12q-29 1 -51 7t-36 14 q-15 8 -23 16t-10 11v-251h-135v691l12 2q6 1 14 1t19 1q33 0 56 -11t29 -37z"/>
<glyph glyph-name="q" horiz-adv-x="559" unicode="q" d="M184 234q0 -69 23 -110t80 -41q32 1 52 13t20 31v228q-7 9 -27 19t-46 10q-52 0 -77 -39t-25 -111zM495 -218h-135v254q-15 -18 -45 -33t-75 -15q-40 0 -76 12t-62 42q-26 28 -42 74t-16 113q0 73 18 123t47 80t65 42t71 13q27 0 49 -7t36 -16q16 -8 25 -18t12 -16 q7 23 29 35t51 12q9 -1 17 -1t16 -1l15 -2v-691z"/>
<glyph glyph-name="r" horiz-adv-x="380" unicode="r" d="M194 426q6 9 16 20t25 20q13 9 31 15t38 6q12 0 26 -2q14 -1 24 -7q12 -6 19 -16t7 -23q0 -11 -3 -24t-8 -27t-11 -26l-11 -22q-17 14 -34 22t-40 7q-31 0 -52 -18t-21 -43v-308h-136v473l12 2q6 1 14 1t19 1q31 -1 55 -13t30 -38z"/>
<glyph glyph-name="s" horiz-adv-x="430" unicode="s" d="M393 418q1 -16 -9 -36t-21 -38q-11 8 -25 16t-32 16t-38 13t-39 5q-11 0 -23 -2t-22 -6t-16 -12t-6 -23q0 -34 73 -50q29 -5 59 -15t54 -27t38 -43t14 -65q0 -40 -16 -71t-42 -52q-28 -21 -64 -32t-79 -11q-45 1 -75 7t-50 15q-14 5 -30 17t-17 32q0 18 10 36t23 38 q8 -8 22 -16t32 -16t37 -13q20 -5 41 -5q13 0 27 2q15 2 25 8t17 16t7 26q0 30 -22 42t-68 21q-29 6 -56 16q-27 11 -48 27q-22 16 -34 41t-12 61t16 63t42 46t62 29q35 10 73 9q39 0 71 -6t55 -16q44 -18 46 -47z"/>
<glyph glyph-name="t" horiz-adv-x="376" unicode="t" d="M71 72q-7 20 -9 42t-2 44v464l15 2q7 2 15 2h16q16 0 32 -3t29 -12t21 -25t8 -40v-70h140v-102h-140v-214q0 -70 57 -70q15 0 27 4t22 10t18 12q7 6 10 9q15 -22 23 -38t8 -30q-1 -13 -11 -25t-29 -24q-19 -10 -46 -16t-59 -7q-63 0 -97 24t-48 63z"/>
<glyph glyph-name="u" horiz-adv-x="561" unicode="u" d="M361 474q1 0 16 1.5t29 1.5q17 0 33.5 -4t29 -13t20.5 -24.5t8 -39.5v-396h-91q-25 0 -31.5 13.5t-6.5 39.5q-17 -23 -52 -42.5t-95 -19.5q-71 0 -105 28t-44 74q-5 23 -6.5 50t-1.5 53v278q10 0 15 1q7 1 14.5 1.5t14.5 0.5q40 0 66 -17t26 -61v-197q0 -23 1.5 -41.5 t8 -32t21 -21t40.5 -7.5q37 0 63.5 15.5t26.5 38.5v320z"/>
<glyph glyph-name="v" horiz-adv-x="485" unicode="v" d="M316 -5h-145l-165 469q33 13 72 13q24 0 40 -7t26 -19q10 -11 16 -29l13 -39l72 -258l76 261q12 43 30 67t60 24q20 0 38 -4t30 -9z"/>
<glyph glyph-name="w" horiz-adv-x="725" unicode="w" d="M557 -5h-106l-81 217l-93 -217h-96l-175 469q18 6 38 10t33 3q31 0 53 -13t32 -44l90 -270l67 163l-48 153q19 6 35 8t33 3q27 0 45 -13t27 -42l86 -262l65 226q12 45 31 68t57 23q20 1 36 -3t33 -10z"/>
<glyph glyph-name="x" horiz-adv-x="469" unicode="x" d="M239 327l54 88q19 31 40 47t59 15q20 0 38 -5t33 -12l-152 -228l146 -230q-30 -12 -63 -12q-35 0 -59 10t-44 43l-60 94l-82 -137h-143l152 237l-140 226q16 5 38 10t44 5q34 0 54 -15t33 -41z"/>
<glyph glyph-name="y" horiz-adv-x="494" unicode="y" d="M322 -82q-20 -66 -66 -106t-128 -39q-45 0 -74 13t-29 44q-1 14 7 31t21 38q11 -8 29 -14t38 -6q31 1 51 17t34 58l17 50h-62l-154 462q14 5 36 8t40 3q28 0 50 -15t30 -46l90 -308l74 269q6 21 14 39t18 32q11 14 27 21q16 8 39 8q19 1 34 -3t30 -10z"/>
<glyph glyph-name="z" horiz-adv-x="443" unicode="z" d="M25 0v91l217 279h-220q-1 4 -1 10v10q1 46 25 66t69 20h231q32 0 47 -10t15 -38v-34l-223 -289h156q47 0 67 -18t20 -56v-17t-2 -14h-401z"/>
<glyph glyph-name="sterling" horiz-adv-x="561" unicode="£" d="M122 0v275h-67v95h67v75v25t2 23q4 48 23 82t49 55t66 31q37 10 78 10q33 0 60 -5t48 -12q21 -8 36 -16t24 -14q24 -18 24 -39q0 -13 -12 -35t-30 -40q-25 20 -55 36t-74 16q-21 0 -39 -5t-33 -17t-23 -32t-8 -50v-88h197v-95h-197v-169h191q49 0 66 -18t17 -53v-19 t-2 -16h-408z"/>
<glyph glyph-name="dieresis" horiz-adv-x="382" unicode="¨" d="M194 619q0 -29 -19 -46.5t-46 -17.5q-28 0 -47 17.5t-19 46.5q0 28 19.5 46t46.5 18t46 -18t19 -46zM400 619q0 -29 -19 -46.5t-46 -17.5q-28 0 -47 17.5t-19 46.5q0 28 19.5 46t46.5 18t46 -18t19 -46z"/>
<glyph glyph-name="cedilla" horiz-adv-x="382" unicode="¸" d="M271 -132q0 -22 -10 -39.5t-25.5 -30t-36 -19t-41.5 -6.5q-20 0 -34 9t-14 26q0 7 1.5 17.5t5.5 23.5q7 -4 16 -6.5t18 -2.5q16 0 25.5 5t9.5 18q0 12 -6.5 20.5t-14 16.5t-14 17t-6.5 24q0 20 11.5 36.5t19.5 24.5h69q-10 -10 -17 -19t-7 -20t8 -19t17 -17.5t17 -23 t8 -35.5z"/>
<glyph glyph-name="Aring" horiz-adv-x="633" unicode="Å" d="M314 549l-91 -285h179zM485 0l-57 164h-231l-55 -164h-136l232 660q12 5 33.5 9.5t46.5 4.5q11 0 24.5 -2t26.5 -8.5t24.5 -18.5t18.5 -33l215 -612h-142zM369 753q0 25 -14.5 43t-38.5 18q-25 0 -39.5 -18t-14.5 -42t14 -43t40 -19q24 0 38.5 18.5t14.5 42.5zM427 754 q0 -23 -8 -44t-22 -36.5t-35 -24.5t-46 -9q-54 0 -83 32.5t-29 80.5q0 24 7.5 44.5t22 36.5t35.5 25t47 9q25 0 46 -9t35 -24.5t22 -36.5t8 -44z"/>
<glyph glyph-name="germandbls" horiz-adv-x="618" unicode="ß" d="M385 535q0 33 -24 55t-67 21q-48 0 -72 -24t-23 -75v-512h-135v516q0 20 2 40t8 36q20 63 76 94t142 31q45 1 84 -9t68 -29q30 -19 46 -47t16 -66q0 -35 -15 -60t-33 -46t-34 -40q-15 -19 -15 -41q0 -23 13 -37t33 -26t43 -24t43 -32q20 -18 33 -44t13 -67q0 -34 -12 -64 t-35 -52q-24 -22 -58 -35t-79 -13q-48 1 -79 9t-52 20q-17 10 -25 19t-8 25q0 15 11 34t25 39q18 -16 48 -32t69 -16q29 1 48 15t19 43q0 21 -13 35t-32 26q-20 12 -42 22q-22 12 -41 26t-32 36q-13 20 -13 50q0 36 16 60t34 45t34 43t15 51z"/>
<glyph glyph-name="adieresis" horiz-adv-x="517" unicode="ä" d="M325 232h-14t-14 -1q-25 -2 -49.5 -6.5t-43.5 -14t-31 -25.5t-12 -41q0 -28 16 -47.5t54 -19.5q19 0 36 5t30 13t20.5 17.5t7.5 17.5v102zM453 116q0 -78 23 -115q-18 -7 -33.5 -10t-32.5 -3q-36 0 -54.5 14t-23.5 40q-22 -23 -58 -39t-88 -16q-27 0 -54 7.5t-49 24.5 t-36 45.5t-14 69.5q0 51 24.5 83t61.5 50.5t80 25.5t79 9q12 1 23.5 1h21.5v18q0 38 -20.5 54t-66.5 16q-43 0 -76.5 -14t-65.5 -32q-14 17 -22.5 37.5t-8.5 30.5q0 13 15.5 26.5t42.5 24t62 17t74 6.5q54 0 91.5 -11t61 -34t33.5 -57.5t10 -80.5v-188zM224 619 q0 -29 -19 -46.5t-46 -17.5q-28 0 -47 17.5t-19 46.5q0 28 19.5 46t46.5 18t46 -18t19 -46zM430 619q0 -29 -19 -46.5t-46 -17.5q-28 0 -47 17.5t-19 46.5q0 28 19.5 46t46.5 18t46 -18t19 -46z"/>
<glyph glyph-name="ccedilla" horiz-adv-x="472" unicode="ç" d="M303 86q22 0 40 5t32 12.5t24 16t15 14.5q6 -6 12 -15.5t11 -20t8 -20.5t3 -18q0 -10 -4 -19.5t-17 -19.5q-19 -14 -54 -26t-89 -12q-36 0 -78 10t-78 38t-60 77.5t-24 129.5q0 76 25 124t62 76t78.5 38.5t74.5 10.5q42 0 76.5 -9t57.5 -24q19 -12 26.5 -23t7.5 -26 q0 -14 -9 -34.5t-23 -37.5q-16 17 -47 34t-69 17q-66 0 -94 -40.5t-28 -103.5q0 -32 6 -60t20.5 -49t37.5 -33t57 -12zM346 -132q0 -22 -10 -39.5t-25.5 -30t-36 -19t-41.5 -6.5q-20 0 -34 9t-14 26q0 7 1.5 17.5t5.5 23.5q7 -4 16 -6.5t18 -2.5q16 0 25.5 5t9.5 18 q0 12 -6.5 20.5t-14 16.5t-14 17t-6.5 24q0 20 11.5 36.5t19.5 24.5h69q-10 -10 -17 -19t-7 -20t8 -19t17 -17.5t17 -23t8 -35.5z"/>
<glyph glyph-name="icircumflex" horiz-adv-x="264" unicode="î" d="M200 -6q0 -1 -15 -2.5t-31 -1.5t-32 3.5t-29 13t-21 25.5t-8 41v400q0 1 15 2.5t31 1.5t32 -3t29 -11.5t21 -24t8 -40.5v-404zM129 625l-59 -67q-11 -13 -23.5 -16t-24.5 -3q-13 0 -28 4t-23 11l91 126q11 15 29 22t39 7q20 0 38 -6t29 -23l91 -128q-10 -6 -23 -10 t-25 -4q-16 0 -29.5 6t-27.5 21z"/>
<glyph glyph-name="otilde" horiz-adv-x="559" unicode="õ" d="M378 238q0 27 -4 53.5t-15 46.5t-30 32.5t-48 12.5t-48.5 -13t-31 -33.5t-16.5 -46.5t-5 -53t4.5 -54t15.5 -48.5t30.5 -34.5t48.5 -13q30 0 49.5 13t30.5 34.5t15 48.5t4 55zM515 239q0 -50 -12.5 -96t-41 -81t-73.5 -56t-109 -21t-108.5 20.5t-72.5 55t-41 80t-13 95.5 q0 51 15 96.5t44.5 80t74.5 54.5t105 20q63 0 107.5 -20t72 -54t40 -79t12.5 -95zM352 559q-24 0 -43 6t-34.5 12.5t-29.5 12.5t-29 6q-23 0 -39.5 -12t-32.5 -31q-12 10 -24.5 23.5t-12.5 29.5q0 14 10 27t25.5 22.5t34.5 15t37 5.5q22 0 39 -6t32 -12.5t29 -12.5t29 -6 q22 0 37 10.5t30 33.5q11 -10 25 -25t14 -31q0 -15 -8.5 -27.5t-22.5 -21.5t-31.5 -14t-34.5 -5z"/>
<glyph glyph-name="ugrave" horiz-adv-x="561" unicode="ù" d="M361 474q1 0 16 1.5t29 1.5q17 0 33.5 -4t29 -13t20.5 -24.5t8 -39.5v-396h-91q-25 0 -31.5 13.5t-6.5 39.5q-17 -23 -52 -42.5t-95 -19.5q-71 0 -105 28t-44 74q-5 23 -6.5 50t-1.5 53v278q10 0 15 1q7 1 14.5 1.5t14.5 0.5q40 0 66 -17t26 -61v-197q0 -23 1.5 -41.5 t8 -32t21 -21t40.5 -7.5q37 0 63.5 15.5t26.5 38.5v320zM133 679q13 11 35.5 22t40.5 11q21 0 35.5 -9.5t28.5 -28.5l82 -116q-9 -8 -28 -14t-33 -6q-33 0 -56 26z"/>
<glyph glyph-name="dotlessi" horiz-adv-x="264" unicode="ı" d="M200 -6q0 -1 -15 -2.5t-31 -1.5t-32 3.5t-29 13t-21 25.5t-8 41v400q0 1 15 2.5t31 1.5t32 -3t29 -11.5t21 -24t8 -40.5v-404z"/>
<glyph glyph-name="circumflex" horiz-adv-x="382" unicode="ˆ" d="M190 625l-59 -67q-11 -13 -23.5 -16t-24.5 -3q-13 0 -28 4t-23 11l91 126q11 15 29 22t39 7q20 0 38 -6t29 -23l91 -128q-10 -6 -23 -10t-25 -4q-16 0 -29.5 6t-27.5 21z"/>
<glyph glyph-name="tilde" horiz-adv-x="382" unicode="˜" d="M265 559q-24 0 -43 6t-34.5 12.5t-29.5 12.5t-29 6q-23 0 -39.5 -12t-32.5 -31q-12 10 -24.5 23.5t-12.5 29.5q0 14 10 27t25.5 22.5t34.5 15t37 5.5q22 0 39 -6t32 -12.5t29 -12.5t29 -6q22 0 37 10.5t30 33.5q11 -10 25 -25t14 -31q0 -15 -8.5 -27.5t-22.5 -21.5 t-31.5 -14t-34.5 -5z"/>
<glyph glyph-name="Euro" horiz-adv-x="561" unicode="€" d="M363 -17q-61 0 -109 19t-81 52q-33 32 -53 76t-27 93h-78v63h72q-1 8 -1 18v15v17t1 20h-72v62h78q9 56 31 102t58 80t83 52t104 18q49 0 87 -12t64 -29q37 -25 37 -54q0 -15 -14 -37t-33 -39l-24 22t-28 20t-36 15t-46 5q-68 0 -103 -40t-47 -103h206v-62h-213 q-1 -8 -1 -16v-14v-18t2 -22h212v-63h-204q12 -61 46 -97t100 -36q28 0 49 6t37 16t27 20t18 19q5 -6 13 -15l16 -20t12 -22q5 -12 5 -21q0 -24 -29 -47q-26 -20 -64 -32t-95 -11z"/>
<glyph glyph-name="ring.cap" d="M244 608q0 25 -14.5 43t-38.5 18q-25 0 -39.5 -18t-14.5 -42t14 -43t40 -19q24 0 38.5 18.5t14.5 42.5zM302 609q0 -23 -8 -44t-22 -36.5t-35 -24.5t-46 -9q-54 0 -83 32.5t-29 80.5q0 24 7.5 44.5t22 36.5t35.5 25t47 9q25 0 46 -9t35 -24.5t22 -36.5t8 -44z" horiz-adv-x="382"/>
</font>
</defs>
</svg>
